<svg xmlns="http://www.w3.org/2000/svg" xmlns:xlink="http://www.w3.org/1999/xlink" viewBox="0 0 546.71 237.06"><defs><style>.cls-1{fill:none;}.cls-2{fill:#111823;}.cls-3{clip-path:url(#clip-path);}.cls-4{fill:#00a7e5;}.cls-5{fill:#e5c8a6;}.cls-6{fill:#3b72a4;}.cls-7{fill:#e93d44;}.cls-8{fill:#203449;}</style><clipPath id="clip-path" transform="translate(0 5.45)"><path class="cls-1" d="M172.89,184.73H144.23V221.8H88.47V184.73H0V142.36L98.44,2.18h45.79V141.12h28.66ZM88.47,141.12V87.23L51.09,141.12Zm120.25,54.51q-21.5-29-21.5-83.8Q187.22,58,208.87,29T271,0q40.5,0,62.15,29t21.65,82.86q0,54.84-21.5,83.8t-62.3,29Q230.21,224.61,208.72,195.63Zm83.79-30.52q6.56-16.2,6.55-53.28,0-36.43-6.55-52.49T271,43.3q-15,0-21.5,16T243,111.83q0,37.08,6.54,53.28T271,181.3Q286,181.3,292.51,165.11Zm254.2,19.62H518.05V221.8H462.29V184.73H373.82V142.36L472.26,2.18h45.79V141.12h28.66Zm-84.42-43.61V87.23l-37.38,53.89Z"/></clipPath></defs><g id="Layer_2" data-name="Layer 2"><g id="Layer_1-2" data-name="Layer 1"><path class="cls-2" d="M172.89,184.73H144.23V221.8H88.47V184.73H0V142.36L98.44,2.18h45.79V141.12h28.66ZM88.47,141.12V87.23L51.09,141.12Z" transform="translate(0 5.45)"/><path class="cls-2" d="M208.72,195.63q-21.5-29-21.5-83.79,0-53.9,21.65-82.87T271,0q40.5,0,62.15,29t21.65,82.87q0,54.82-21.5,83.79t-62.3,29Q230.21,224.61,208.72,195.63Zm83.79-30.52q6.56-16.2,6.55-53.27,0-36.45-6.55-52.49T271,43.3q-15,0-21.49,16.05T243,111.84q0,37.07,6.55,53.27T271,181.31Q286,181.31,292.51,165.11Z" transform="translate(0 5.45)"/><path class="cls-2" d="M546.71,184.73H518.05V221.8H462.29V184.73H373.82V142.36L472.26,2.18h45.79V141.12h28.66Zm-84.42-43.61V87.23l-37.38,53.89Z" transform="translate(0 5.45)"/><g class="cls-3"><polygon class="cls-4" points="484.79 231.68 531.98 231.68 484.79 184.49 484.79 231.68"/><polygon class="cls-5" points="103.78 47.19 150.96 47.19 103.78 0 103.78 47.19"/><path class="cls-5" d="M397.29,154.4H425a7.77,7.77,0,0,1,7.77,7.77v27.75a0,0,0,0,1,0,0H405.07a7.77,7.77,0,0,1-7.77-7.77V154.4A0,0,0,0,1,397.29,154.4Z"/><path class="cls-6" d="M23.69,83.48H51.43a7.77,7.77,0,0,1,7.77,7.77V119a0,0,0,0,1,0,0H31.46a7.77,7.77,0,0,1-7.77-7.77V83.48A0,0,0,0,1,23.69,83.48Z"/><path class="cls-7" d="M117.76,184.47A36.34,36.34,0,0,0,81.42,220.8h36.34Z" transform="translate(0 5.45)"/><rect class="cls-7" x="251.7" y="217.75" width="19.32" height="19.32"/><rect class="cls-4" x="131.65" y="109.34" width="19.32" height="19.32"/><rect class="cls-5" x="271.02" y="198.43" width="19.32" height="19.32"/><rect class="cls-7" x="465.04" y="29" width="29" height="29"/><rect class="cls-8" x="494.04" width="29" height="29"/><rect class="cls-8" x="220.85" y="58.27" width="43.77" height="43.77"/><rect class="cls-6" x="264.62" y="14.5" width="43.77" height="43.77"/></g></g></g></svg>