<svg xmlns="http://www.w3.org/2000/svg" width="111" height="110" viewBox="0 0 111 110">
    <g fill="none" fill-rule="evenodd">
        <path fill="#00A7E5" fill-rule="nonzero" d="M51.021 14.87c-3.015 0-5.637 1.497-7.657 3.689-2.02 2.192-3.59 5.09-4.819 8.378-1.969 5.268-3.087 11.555-3.459 17.472-5.921.662-10.953 1.568-14.664 2.717-1.984.615-3.614 1.28-4.878 2.116-1.263.836-2.365 2.027-2.365 3.632 0 1.177.66 2.17 1.449 2.888.788.717 1.755 1.257 2.927 1.773 2.343 1.031 5.488 1.884 9.342 2.602 7.708 1.435 18.207 2.316 29.8 2.316 11.594 0 22.093-.88 29.802-2.316 3.854-.718 6.999-1.57 9.342-2.602 1.171-.516 2.138-1.056 2.927-1.773.788-.718 1.448-1.71 1.448-2.888 0-1.605-1.101-2.796-2.365-3.632-1.263-.835-2.893-1.501-4.878-2.116-3.71-1.149-8.742-2.055-14.664-2.717-.371-5.917-1.49-12.204-3.459-17.472-1.23-3.288-2.799-6.186-4.819-8.378s-4.642-3.689-7.657-3.689c-1.446 0-2.578.51-3.577.944-1 .434-1.892.798-2.424.886l-.06.029c-.858-.401-1.709-.812-2.513-1.144-.907-.375-1.68-.715-2.779-.715zm.207 2.745c-.11 0 .549.09 1.301.4.752.312 1.689.766 2.69 1.23 2.004.93 4.108 2.03 6.416 2.03.942.024 1.76-.627 1.915-1.526.156-.9-.395-1.773-1.294-2.048.072-.011.274-.086.325-.086 1.768 0 3.31.79 4.849 2.46 1.537 1.668 2.928 4.175 4.05 7.177 1.234 3.302 2.104 7.175 2.66 11.095-3.01 1.467-8.163 3.06-17.235 3.06-9.073 0-14.226-1.593-17.236-3.06.556-3.92 1.426-7.793 2.66-11.095 1.123-3.002 2.513-5.509 4.05-7.178 1.539-1.668 3.082-2.459 4.85-2.459zm-12.21 25.479c3.646 1.533 9.179 2.888 17.68 2.888 8.5 0 14.034-1.355 17.68-2.888.154 1.8.255 3.56.265 5.262-.108.088-.243.207-.561.371-.797.413-2.158.903-3.873 1.316-3.431.826-8.293 1.43-13.511 1.43s-10.08-.604-13.511-1.43c-1.715-.413-3.076-.903-3.873-1.316-.318-.164-.453-.283-.562-.371.01-1.701.111-3.463.266-5.262zm-4.08 5.004c-.002.209 0 .423 0 .63 0 .893.467 1.604.946 2.087.48.483 1.03.82 1.656 1.144 1.252.648 2.82 1.17 4.73 1.63 3.821.92 8.917 1.544 14.428 1.544 5.51 0 10.606-.624 14.427-1.544 1.91-.46 3.478-.982 4.73-1.63.626-.324 1.177-.66 1.656-1.144.48-.483.946-1.194.946-2.088 0-.206.002-.42 0-.629 5.501.643 10.158 1.524 13.363 2.517 1.777.55 3.114 1.156 3.873 1.658.486.322.653.525.71.6-.026.041-.066.1-.207.23-.32.291-.987.703-1.922 1.115-1.87.823-4.806 1.631-8.485 2.316-7.357 1.37-17.695 2.26-29.091 2.26-11.397 0-21.734-.89-29.092-2.26-3.678-.685-6.615-1.493-8.484-2.316-.935-.412-1.602-.824-1.922-1.115a1.054 1.054 0 0 1-.207-.23c.057-.075.224-.278.71-.6.759-.502 2.096-1.108 3.872-1.658 3.206-.993 7.862-1.874 13.363-2.517z"/>
        <path fill="#00A7E5" d="M51.414 72.887c.64 1.497.994 3.135.994 4.85 0 7.03-5.946 12.76-13.226 12.76-7.281 0-13.227-5.73-13.227-12.76 0-7.032 5.946-12.775 13.227-12.775 4.257 0 8.059 1.964 10.481 5.002.06-.026.124-.049.19-.07 3.92-1.694 7.328-1.767 11.2-.217 2.426-2.873 6.118-4.715 10.243-4.715 7.284 0 13.233 5.743 13.233 12.774 0 7.032-5.949 12.761-13.233 12.761-7.284 0-13.22-5.73-13.22-12.76 0-1.847.41-3.605 1.145-5.193a9.912 9.912 0 0 0-7.807.343zM39.182 68.38c-5.37 0-9.688 4.17-9.688 9.356 0 5.185 4.319 9.344 9.688 9.344 5.368 0 9.688-4.159 9.688-9.344s-4.32-9.356-9.688-9.356zm32.114 0c-5.371 0-9.68 4.17-9.68 9.356 0 5.185 4.309 9.344 9.68 9.344 5.372 0 9.693-4.159 9.693-9.344s-4.321-9.356-9.693-9.356z"/>
        <path fill="#E6E6E6" d="M39.07 42.647l-.339 6.076c3.29 2.223 9.148 3.335 17.575 3.335 8.426 0 14.618-1.112 18.574-3.335.032-4.051-.07-6.076-.305-6.076-.353 0-7.86 3.395-17.997 3.111-6.759-.188-12.595-1.226-17.508-3.111z"/>
        <path stroke="#A2ABAF" stroke-dasharray="4,6.4" stroke-linecap="round" stroke-linejoin="round" stroke-width="3.4" d="M55.5 108c29.547 0 53.5-23.729 53.5-53S85.047 2 55.5 2 2 25.729 2 55s23.953 53 53.5 53z"/>
    </g>
</svg>
