<svg xmlns="http://www.w3.org/2000/svg" width="111" height="78" viewBox="0 0 111 78">
    <g fill="none" fill-rule="evenodd">
        <g fill="#00A7E5">
            <path fill-rule="nonzero" d="M103.186 68.277L98.04 67.18c-8.3-1.771-16.44-9.398-18.872-11.832-2.79.07-10.782.253-17.753.253-4.163 0-7.297-.065-9.313-.194-6.744-.445-11.196-4.257-13.234-11.33-2.14-7.401-1.454-22.871-.041-30.27 1.34-7.063 4.869-10.228 13.021-11.674C57.35 1.164 65.583.61 74.447.61c8.811 0 16.682.56 21.6 1.535 7.196 1.436 12.103 5.905 13.463 12.263 2.25 10.56 1.193 20.926.022 28.776-.511 3.435-2.683 9.346-11.341 11.717-.277 3.637.418 6.449 2.24 9.203l2.755 4.174zm-22.07-17.095l.688.737c.073.078 5.95 6.312 12.605 9.582-.948-3.181-.79-6.1-.471-8.49l.19-1.438 1.527-.315c5.613-1.153 8.803-4.063 9.486-8.642 1.125-7.531 2.143-17.453.022-27.412-1.011-4.74-4.582-7.953-10.048-9.043-4.622-.918-12.156-1.444-20.668-1.444-8.471 0-16.61.545-21.77 1.454-6.342 1.126-8.47 3-9.487 8.352-1.31 6.867-1.996 21.73-.041 28.488 1.56 5.417 4.418 7.973 9.263 8.293 1.913.122 4.941.185 9.004.185 8.55 0 18.64-.278 18.65-.28l1.05-.027z"/>
            <path d="M7.815 77.825l2.756-4.179c1.82-2.758 2.517-5.571 2.24-9.206-8.668-2.374-10.834-8.285-11.34-11.722-1.176-7.853-2.234-18.222.022-28.768 1.359-6.363 6.266-10.832 13.46-12.264 5.747-1.143 15.713-1.703 26.03-1.492l-.103 4.112c-9.984-.214-19.565.32-24.999 1.399-5.461 1.088-9.029 4.299-10.044 9.043-2.124 9.945-1.104 19.87.022 27.406.678 4.581 3.87 7.488 9.486 8.644l1.527.314.19 1.44c.425 3.185.284 5.942-.467 8.49 6.652-3.277 12.53-9.506 12.602-9.584l.69-.737 1.052.028c.201.004 20.463.564 27.65.096 4.486-.294 7.328-2.61 8.943-7.286l4.22 1.257C69.574 61.12 65.25 64.53 58.9 64.947c-6.547.423-22.785.049-27.072-.06-2.43 2.435-10.574 10.06-18.872 11.836l-5.142 1.102z"/>
        </g>
        <path stroke="#A2ABAF" stroke-dasharray="5,8" stroke-linecap="round" stroke-width="4" d="M57.673 28.5h33.654"/>
    </g>
</svg>
