
<svg width="18px" height="15px" viewBox="0 0 18 15" version="1.1" xmlns="http://www.w3.org/2000/svg" xmlns:xlink="http://www.w3.org/1999/xlink">
    <g id="Page-1" stroke="none" stroke-width="1" fill="none" fill-rule="evenodd">
        <g id="ic_dislike" transform="translate(9.000000, 7.500000) scale(-1, -1) translate(-9.000000, -7.500000) translate(1.000000, 1.000000)">
            <g id="a-link">
                <path d="M0,13 L2.91,13 L2.91,5.2 L0,5.2 L0,13 Z M16,5.85 C16,5.135 15.345,4.55 14.545,4.55 L9.956,4.55 L10.647,1.58 L10.669,1.371 C10.6652769,1.10625224 10.5488836,0.855642753 10.349,0.682 L9.58,0 L4.792,4.284 C4.522,4.518 4.362,4.843 4.362,5.2 L4.362,11.7 C4.362,12.415 5.017,13 5.817,13 L12.363,13 C12.966,13 13.483,12.675 13.701,12.207 L15.897,7.624 C15.963,7.475 15.999,7.319 15.999,7.15 L15.999,5.908 L15.992,5.902 L16,5.85 Z" id="a"></path>
            </g>
            <g id="Clipped" transform="translate(0.000000, 0.160111)" fill="#FFFFFF" fill-rule="nonzero" stroke="#4E5154">
                <g id="a">
                    <path d="M0,12.8398892 L2.91,12.8398892 L2.91,5.03988922 L0,5.03988922 L0,12.8398892 Z M16,5.68988922 C16,4.97488922 15.345,4.38988922 14.545,4.38988922 L9.956,4.38988922 L10.647,1.41988922 L10.669,1.21088922 C10.6652769,0.946141463 10.5488836,0.695531976 10.349,0.521889223 L9.64817768,1.38777878e-16 L4.792,4.12388922 C4.522,4.35788922 4.362,4.68288922 4.362,5.03988922 L4.362,11.5398892 C4.362,12.2548892 5.017,12.8398892 5.817,12.8398892 L12.363,12.8398892 C12.966,12.8398892 13.483,12.5148892 13.701,12.0468892 L15.897,7.46388922 C15.963,7.31488922 15.999,7.15888922 15.999,6.98988922 L15.999,5.74788922 L16,5.68988922 Z" id="path-1"></path>
                </g>
            </g>
        </g>
    </g>
</svg>