<svg xmlns="http://www.w3.org/2000/svg" width="75" height="59" viewBox="0 0 75 59">
    <g fill="none" fill-rule="evenodd">
        <g fill="#00A7E5" fill-rule="nonzero">
            <path d="M64.169 19.671H22.288c-.578 0-1.083.5-1.083 1.073v28.603c0 .572.505 1.072 1.083 1.072h41.88c.578 0 1.084-.5 1.084-1.072V20.744c0-.572-.506-1.073-1.083-1.073zm-1.083 28.603H23.37V21.816h39.715v26.458z"/>
            <path d="M72.545 51.85h-3.683c0-.144.072-.215.072-.358V18.599c0-1.359-1.155-2.503-2.527-2.503H20.122c-1.372 0-2.528 1.144-2.528 2.503v32.893c0 .143 0 .214.072.357h-3.754c-.722 0-2.455 0-2.455 2.503 0 1.144.65 2.503 1.588 3.432.794.787 1.805 1.216 2.816 1.216H70.38c1.227 0 2.455-.572 3.393-1.716.723-.93 1.228-2.002 1.228-2.932 0-.93-.289-2.503-2.455-2.503zm-52.785-.358V18.599c0-.215.145-.358.362-.358h46.213c.217 0 .361.143.361.358v32.893c0 .214-.144.357-.361.357H20.122c-.217 0-.362-.143-.362-.357zm52.352 4.433c-.29.358-.867.93-1.661.93H16.006c-.506 0-1.011-.143-1.445-.572-.65-.572-.938-1.43-.938-1.93v-.358H38.607c-.072.143-.072.214-.072.357 0 .572.505 1.073 1.083 1.073h7.22c.578 0 1.084-.5 1.084-1.073 0-.143 0-.214-.072-.357h24.984v.357c0 .358-.217 1.001-.722 1.573z"/>
        </g>
        <g fill="#E1E5E9" transform="translate(33.174 28.014)">
            <ellipse cx="9.844" cy="6.469" rx="6.626" ry="6.469"/>
            <path d="M19.073 18.512c-.326-3.207-2.194-6.115-5.417-7.067-.971.585-2.737.944-4.004.97-1.266-.026-3.032-.384-4.004-.97-3.223.952-5.09 3.86-5.417 7.067 0 0-.227 1.23 1.095 1.23h16.652c1.322 0 1.095-1.23 1.095-1.23z"/>
        </g>
        <path stroke="#00A7E5" stroke-dasharray="3.2,3.2" stroke-linecap="round" stroke-width="2" d="M5.988 4.694L15 14.126M1.806 19.985l11.548-.665M21.538 1.1v11.418M33.174 8.96l-5.765 3.38M7.738 28.358l5.131-4.452"/>
    </g>
</svg>
