<svg xmlns="http://www.w3.org/2000/svg" width="60" height="60" viewBox="0 0 60 60">
    <g fill="none" fill-rule="evenodd">
        <path fill="#00A7E5" fill-rule="nonzero" d="M.56 41.32l5.2 15.2c.32.96 1.04 1.76 2 2.24.56.24 1.12.4 1.76.4.4 0 .88-.08 1.28-.24l25.44-8.72c.24 1.6.8 3.12 1.84 4.48 1.6 2.32 4.08 3.84 6.88 4.32.64.08 1.2.16 1.84.16 2.16 0 4.32-.64 6.08-1.92 4.8-3.36 5.92-10 2.56-14.8-3.36-4.8-10-5.92-14.8-2.56-.24.16-.48.32-.64.48l-3.84-11.28a3.865 3.865 0 0 0-4.96-2.4L2.96 36.36c-2 .72-3.12 2.96-2.4 4.96zm2.08 1.2L35.12 31.4l.88 2.48L3.52 45l-.88-2.48zm7.6 14.96c-.56.16-1.2.16-1.76-.08s-.96-.72-1.2-1.36L4 46.52 36.48 35.4l2.16 6.32c-1.68 1.92-2.56 4.4-2.56 6.88l-25.84 8.88zm31.28-16.32a8.99 8.99 0 0 1 12.56 2.16 8.99 8.99 0 0 1-2.16 12.56c-2 1.36-4.4 1.92-6.72 1.52-2.4-.4-4.48-1.68-5.84-3.68-2.88-4-1.92-9.68 2.16-12.56zM31.6 28.2c1.2-.4 2.56.24 2.96 1.44l.08.16L2.08 41 2 40.84c-.4-1.2.24-2.56 1.44-2.96L31.6 28.2z"/>
        <path fill="#00A7E5" d="M34.8 42.44l-1.52.56c-.4.16-.64.56-.48 1.04.08.32.4.56.72.56.08 0 .16 0 .24-.08l1.52-.56c.4-.16.64-.56.48-1.04-.08-.4-.56-.56-.96-.48zM31.12 43.72l-1.52.56c-.4.16-.64.56-.48 1.04.08.32.4.56.72.56.08 0 .16 0 .24-.08l1.52-.56c.4-.16.64-.56.48-1.04-.08-.4-.56-.64-.96-.48zM27.36 45l-1.52.56c-.4.16-.64.56-.48 1.04.08.32.4.56.72.56.08 0 .16 0 .24-.08l1.52-.56c.4-.16.64-.56.48-1.04-.08-.4-.56-.64-.96-.48zM23.68 46.28l-1.52.56c-.48.16-.64.56-.56.96.08.32.4.56.72.56.08 0 .16 0 .24-.08l1.52-.56c.4-.16.64-.56.48-1.04-.08-.32-.48-.48-.88-.4z"/>
        <path fill="#A2ABAF" fill-rule="nonzero" d="M13.2 47.48c-.4.16-.72.32-.96.56-.4 0-.8 0-1.12.16-1.6.56-2.4 2.32-1.92 3.84.24.8.8 1.36 1.52 1.76.4.24.88.32 1.36.32.32 0 .64-.08.96-.16.4-.16.72-.32 1.04-.56h.16c.32 0 .64-.08.96-.16 1.6-.56 2.4-2.32 1.92-3.84-.64-1.6-2.32-2.4-3.92-1.92zm-.4 3.36a1.95 1.95 0 0 1 0-.96c.24.16.48.4.56.72.08.32.08.64 0 .96-.24-.08-.48-.4-.56-.72zm-2.16.8c-.24-.64 0-1.28.48-1.6-.08.48 0 .96.16 1.44s.4.88.8 1.2c-.64-.08-1.2-.48-1.44-1.04zm4.4-.08c.08-.48 0-.96-.16-1.44s-.4-.88-.8-1.2c.64 0 1.2.4 1.36.96.32.64.08 1.28-.4 1.68z"/>
        <path fill="#00A7E5" fill-rule="nonzero" d="M42.4 48.52c.56.72 1.28 1.28 2.24 1.36.64.08 1.28 0 1.84-.24l2 2.88H48c-.48-.08-.88-.32-1.2-.72-.24-.4-.72-.48-1.12-.16-.4.24-.48.72-.16 1.12.56.72 1.28 1.28 2.24 1.36.16 0 .4.08.56.08.4 0 .8-.08 1.12-.24l.24.4c.16.24.4.32.64.32.16 0 .32-.08.48-.16.4-.24.48-.72.16-1.12l-.24-.32c.48-.48.72-1.12.88-1.76.16-.88-.08-1.84-.56-2.56-.96-1.36-2.72-1.76-4.16-1.2l-2-2.88c.64-.08 1.36.16 1.76.72.24.4.72.48 1.12.16.4-.24.48-.72.16-1.12-.96-1.28-2.64-1.76-4.08-1.2l-.16-.24c-.24-.4-.72-.48-1.12-.16-.4.24-.48.72-.16 1.12l.24.4c-1.04 1.04-1.2 2.8-.24 4.16zm7.44 1.2c.32.4.4.88.32 1.36-.08.24-.16.48-.24.64L48 49c.64-.24 1.36.08 1.84.72zm-4.32-1.44h-.56c-.48-.08-.88-.32-1.2-.72-.4-.56-.4-1.36-.08-1.92l1.84 2.64z"/>
        <path fill="#E1E5E9" d="M2.053 40.956l1.992 5.652 32.504-11.095-1.95-5.735z"/>
        <path stroke="#00A7E5" stroke-dasharray="4,4" stroke-linecap="round" stroke-width="2" d="M55.713 39.278c2.947-4.434 4.158-13.255-.747-21.078"/>
        <text fill="#00A7E5" font-family="ProximaNova-Semibold, Proxima Nova" font-size="19.2" font-weight="500" letter-spacing=".464" transform="rotate(-6 4.297 8.221)">
            <tspan x="46.4" y="18.721">?</tspan>
        </text>
        <text fill="#00A7E5" font-family="ProximaNova-Semibold, Proxima Nova" font-size="19.2" font-weight="500" letter-spacing=".464" transform="rotate(-31 32.008 17.391)">
            <tspan x="36.523" y="25.891">¿</tspan>
        </text>
    </g>
</svg>
