<svg xmlns="http://www.w3.org/2000/svg" xmlns:xlink="http://www.w3.org/1999/xlink" width="17" height="17" viewBox="0 0 17 17">
    <defs>
        <path id="a" d="M14.823 7.806a1.303 1.303 0 0 0-1.72-.658l-.627.281-1.607-3.591.627-.28a1.303 1.303 0 0 0-1.064-2.378l-.626.28-.28-.627a1.302 1.302 0 0 0-2.378 1.064l.28.627-3.59 1.606-.28-.627c-.294-.658-1.065-.95-1.721-.658a1.303 1.303 0 0 0-.657 1.721l.28.626-.627.281a1.302 1.302 0 1 0 1.064 2.378l.627-.281 1.605 3.592-.626.28a1.303 1.303 0 0 0 1.063 2.378l.626-.28.28.626a1.302 1.302 0 1 0 2.378-1.063l-.28-.627 3.591-1.605.28.625a1.301 1.301 0 1 0 2.378-1.063l-.28-.626.626-.28a1.301 1.301 0 0 0 .658-1.72zM6.507 10.1L4.901 6.507 8.49 4.9l1.607 3.591-3.591 1.607z"/>
    </defs>
    <g fill="none" fill-rule="evenodd" transform="translate(1 1)">
        <mask id="b" fill="#fff">
            <use xlink:href="#a"/>
        </mask>
        <use fill="#4E5154" fill-rule="nonzero" xlink:href="#a"/>
        <g fill="#4E5154" fill-rule="nonzero" mask="url(#b)">
            <path d="M-1-1h17v17H-1z"/>
        </g>
    </g>
</svg>
