<?xml version="1.0" encoding="UTF-8"?>
<svg width="16px" height="16px" viewBox="0 0 16 16" version="1.1" xmlns="http://www.w3.org/2000/svg" xmlns:xlink="http://www.w3.org/1999/xlink">
    <!-- Generator: Sketch 52.5 (67469) - http://www.bohemiancoding.com/sketch -->
    <title>noun_Warning_62054</title>
    <desc>Created with Sketch.</desc>
    <g id="Iterations" stroke="none" stroke-width="1" fill="none" fill-rule="evenodd">
        <g id="Main-page/-warning-modal-Copy" transform="translate(-438.000000, -291.000000)" fill="#EABB3B" fill-rule="nonzero">
            <g id="noun_Warning_62054" transform="translate(438.000000, 291.000000)">
                <g id="Group">
                    <path d="M7.99999876,0.0424377528 C5.9897712,0.0424377528 3.97989209,0.815579326 2.44999876,2.36266247 C-0.609788,5.45682876 -0.604228889,10.4932135 2.45555431,13.5873798 C5.51534098,16.6815461 10.4846565,16.6815461 13.5444432,13.5873798 C16.6042299,10.4932135 16.609789,5.45682876 13.5499988,2.36266247 C12.0201036,0.815579326 10.0102263,0.0424377528 7.99999876,0.0424377528 Z M7.99999876,1.11547146 C9.7343952,1.11457258 11.4739188,1.78572584 12.7999988,3.12670742 C15.4521605,5.80866876 15.4466014,10.1413753 12.7944432,12.8233348 C10.1422814,15.5052944 5.85771609,15.5052944 3.20555431,12.8233348 C0.553392444,10.1413753 0.553394222,5.81428674 3.20555431,3.13232539 C4.53163431,1.79134562 6.26560231,1.11643865 7.99999876,1.11547146 Z M7.9944432,3.41322427 C7.97584055,3.41411188 7.95729663,3.41598411 7.93888764,3.41883326 C7.66630062,3.4506123 7.46202936,3.68634107 7.46666542,3.96377708 L7.46666542,9.77276404 C7.46394527,9.96726431 7.56499891,10.1481787 7.73113094,10.2462316 C7.89726297,10.3442844 8.10273454,10.3442844 8.26886657,10.2462316 C8.4349986,10.1481787 8.53605224,9.96726431 8.53333209,9.77276404 L8.53333209,3.96377708 C8.53633285,3.81782694 8.48070406,3.67687956 8.37915117,3.57312693 C8.27759829,3.4693743 8.13879486,3.41167785 7.9944432,3.41321528 L7.9944432,3.41322427 Z M7.99999876,11.1042337 C7.61434542,11.1042337 7.2944432,11.4220944 7.2944432,11.8120989 C7.2944432,12.2020854 7.61434542,12.525573 7.99999876,12.525573 C8.38566987,12.525573 8.70555431,12.2020854 8.70555431,11.8120989 C8.70555431,11.4220944 8.38566987,11.1042337 7.99999876,11.1042337 Z" id="Shape"></path>
                </g>
            </g>
        </g>
    </g>
</svg>